<svg width="40" height="40" viewBox="0 0 40 40" fill="none" xmlns="http://www.w3.org/2000/svg">
<path d="M35.5457 18.875C34.0457 18.6213 32.4832 18.455 31.2132 18.41L30.9882 18.4025C31.0407 18.29 31.0795 18.215 31.092 18.2025C31.1195 18.18 31.142 18.085 31.1445 17.9925C31.1445 17.9425 31.167 17.775 31.202 17.555C31.547 17.5675 32.002 17.5775 32.502 17.58C34.422 17.5963 36.432 17.7513 37.8107 17.995C38.632 18.14 38.9032 18.135 38.2982 17.9875C37.6832 17.8375 35.8632 17.62 34.4132 17.525C33.3499 17.461 32.2846 17.4352 31.2195 17.4475C31.2445 17.305 31.2695 17.1475 31.2995 16.985C31.4145 16.355 31.4532 15.7225 31.4557 14.4638C31.4582 12.5138 31.3532 11.9763 30.7182 10.6838C30.4784 10.1858 30.1736 9.72178 29.812 9.30378C30.1207 8.39128 30.112 6.98128 29.7932 5.74378C29.5307 4.72878 29.437 4.66378 28.5182 4.85878C27.737 5.02503 27.112 5.25128 26.3107 5.65503C25.9307 5.84628 25.4082 6.14253 25.0295 6.37753C24.042 6.03128 23.0207 5.80253 21.9295 5.67753C20.8257 5.55253 18.117 5.62253 17.1545 5.80003C16.217 5.97503 15.3695 6.18753 14.6045 6.43753C14.2207 6.20253 13.667 5.88378 13.2695 5.68378C12.4645 5.27878 11.8395 5.05378 11.057 4.88753C10.1395 4.69128 10.0445 4.75753 9.78198 5.77253C9.45698 7.02628 9.45448 8.46003 9.77573 9.37003C9.81323 9.47378 9.83573 9.54753 9.84448 9.60503C8.54198 11.245 8.11698 13.08 8.39948 15.6425C8.47448 16.3088 8.58698 16.9213 8.74698 17.4825C7.91573 17.4775 6.73448 17.5075 5.87948 17.5625C4.42698 17.6588 2.60698 17.875 1.99198 18.025C1.38823 18.1713 1.65698 18.175 2.47948 18.0325C3.85823 17.79 5.86948 17.6325 7.78948 17.62C8.15198 17.6175 8.48948 17.61 8.78198 17.6025C8.86948 17.8988 8.96948 18.1813 9.08198 18.45H9.07573C7.80698 18.495 6.24573 18.6625 4.74448 18.9125C3.61948 19.1025 1.95698 19.48 1.76198 19.5875C1.55698 19.7025 1.72448 19.6775 2.59573 19.4563C4.18698 19.0538 6.25573 18.7438 8.81823 18.5313L9.10573 18.5063C9.65573 19.7813 10.502 20.7563 11.6995 21.5188C12.432 21.9838 13.6057 22.4625 14.197 22.5375C14.3595 22.5575 14.832 22.655 15.247 22.7525C15.6632 22.85 16.477 22.9963 17.0545 23.08H17.067L17.037 23.1C16.337 23.4625 15.882 24.03 15.5745 24.9213C15.437 24.9625 15.267 25.0188 15.082 25.0838C14.4195 25.3088 14.1632 25.3538 13.4945 25.3588C12.7982 25.3638 12.632 25.3338 12.2195 25.1388C11.5798 24.8243 11.0443 24.3321 10.677 23.7213C10.052 22.6888 8.96823 21.9588 8.06448 21.9588C7.29448 21.9588 7.14823 22.2713 7.70573 22.7275C8.54573 23.415 9.17323 24.115 9.43073 24.65L9.92698 25.68C10.0645 25.9638 10.3545 26.3488 10.632 26.615C11.2845 27.2375 11.9145 27.535 12.8545 27.675C13.4845 27.7675 13.6395 27.7675 14.3832 27.6725C14.742 27.6288 15.0457 27.5775 15.3157 27.5138V28.5813C15.3157 30.7888 15.2907 31.4988 15.2032 31.7063C15.037 32.1013 14.6657 32.5063 14.307 32.69C13.9482 32.8738 13.837 33.075 13.9882 33.26C14.0732 33.36 14.2345 33.3775 14.7757 33.3425C15.8032 33.28 16.5295 32.8988 16.9007 32.23C17.0182 32.0138 17.0457 31.58 17.0832 29.33C17.1232 26.89 17.1407 26.655 17.2995 26.305C17.3945 26.0988 17.5332 25.8738 17.612 25.8125C17.7407 25.705 17.7495 25.9175 17.7495 28.8375C17.7495 32.06 17.7157 32.45 17.3932 33.0688C17.3207 33.21 17.1832 33.3938 17.087 33.4813C16.9182 33.635 16.847 34.0288 16.9645 34.1475C17.1582 34.34 18.1295 34.0375 18.6595 33.62C19.562 32.905 19.6695 32.3138 19.677 28.045L19.6807 25.5388L19.9557 25.5638L20.2282 25.5888L20.2732 28.8638C20.3232 32.5538 20.3307 32.6075 20.9582 33.32C21.3145 33.7225 21.6732 33.945 22.2582 34.12C23.0382 34.3538 23.2732 33.9913 22.7482 33.3625C22.177 32.6775 22.1482 32.4163 22.1807 28.3688C22.202 25.7738 22.202 25.7738 22.3682 25.925C22.722 26.245 22.7895 26.77 22.7895 29.2038C22.7895 32.2263 22.877 32.5138 23.9432 33.0413C24.4432 33.285 24.5807 33.3163 25.2207 33.3163C25.9007 33.32 25.942 33.31 25.967 33.1325C25.9882 32.9888 25.9045 32.8913 25.587 32.6975C25.1951 32.4662 24.8855 32.1177 24.702 31.7013C24.6332 31.5438 24.587 30.5038 24.5557 28.3638C24.5107 25.3713 24.5007 25.235 24.3145 24.7663C24.0645 24.1363 23.6795 23.6388 23.1932 23.3088C23.0682 23.2263 22.9407 23.1588 22.777 23.1063C22.977 23.0863 23.1732 23.065 23.362 23.0375C25.327 22.775 26.3657 22.5575 27.1995 22.235C28.962 21.5563 30.1557 20.4288 30.802 18.83C30.8595 18.6875 30.917 18.5525 30.9645 18.4425L31.4645 18.485C34.027 18.7013 36.0957 19.01 37.687 19.4138C38.5595 19.6363 38.7245 19.6638 38.522 19.5463C38.332 19.44 36.6695 19.0638 35.5445 18.875H35.5457ZM28.0282 18.835C27.737 19.475 26.9245 20.2975 26.2682 20.62C25.6207 20.94 24.6057 21.1825 23.4557 21.3C22.6682 21.38 18.2845 21.4038 17.5607 21.3325C15.1645 21.0975 13.8232 20.6363 12.832 19.7125C11.8945 18.835 11.457 17.6438 11.532 16.1775C11.582 15.26 11.8032 14.6838 12.382 13.9838C12.907 13.3463 13.462 12.9525 14.1145 12.7525C14.662 12.585 16.3395 12.57 18.592 12.715C19.5882 12.7775 20.412 12.7775 21.407 12.715C23.7645 12.565 25.3382 12.5825 25.9195 12.7625C26.832 13.045 27.6657 13.805 28.1657 14.8175C28.3907 15.27 28.4357 15.4625 28.4682 16.1613C28.5132 17.1238 28.347 18.145 28.0307 18.8338L28.0282 18.835ZM16.1407 14.7025C14.7995 14.4675 14.0332 16.765 15.062 17.9363C15.5495 18.4913 15.9832 18.5825 16.5245 18.245C17.0282 17.9325 17.2995 17.345 17.2995 16.585C17.2995 15.57 16.8395 14.825 16.1395 14.7L16.1407 14.7025ZM24.282 14.84C22.9407 14.605 22.1732 16.8988 23.202 18.0725C23.6932 18.6288 24.127 18.7225 24.6695 18.3813C25.1695 18.0688 25.4445 17.4813 25.4445 16.7213C25.4445 15.7113 24.982 14.9638 24.282 14.84ZM20.6745 19.355C20.6445 19.4475 20.5045 19.585 20.362 19.6588C20.0057 19.8425 19.7495 19.7788 19.3707 19.4338C19.137 19.2238 19.0307 19.1125 18.9582 19.3338C18.8932 19.5388 19.3082 19.95 19.6307 20.0763C19.9257 20.195 20.137 20.1988 20.4557 20.0638C20.7745 19.9325 21.052 19.5763 21.052 19.345C21.052 19.13 20.7432 19.14 20.6732 19.3575L20.6745 19.355ZM20.277 18.6363C20.4807 18.455 20.527 18.0863 20.332 17.8888C20.137 17.6913 19.7407 17.7225 19.5857 17.9425C19.4045 18.2 19.5007 18.3963 19.6295 18.605C19.8295 18.76 20.0982 18.7925 20.2757 18.635L20.277 18.6363Z" fill="white"/>
</svg>
