<svg width="242" height="37" viewBox="0 0 242 37" fill="none" xmlns="http://www.w3.org/2000/svg">
<path d="M21.525 0.449707H36.376V25.2642C36.376 29.2209 35.472 32.1302 33.664 33.9922C31.677 35.9974 28.436 37 23.942 37H21.525V0.449707ZM0.820007 24.4585H17.067V37H15.322C10.183 37 6.48601 36.1764 4.23001 34.5293C1.95701 32.9001 0.820007 30.1877 0.820007 26.3921V24.4585ZM62.265 0.449707H64.682C71.271 0.449707 75.201 2.67871 76.472 7.13671C76.901 8.60481 77.116 10.2878 77.116 12.1855V37H62.265V0.449707ZM42.446 12.1855C42.446 8.22881 43.35 5.32851 45.158 3.48441C47.146 1.46131 50.386 0.449707 54.88 0.449707H57.297V37H42.446V12.1855ZM101.555 0.449707H118.125V18.8457L101.555 0.449707ZM84.018 11.2456H83.857C83.857 7.55751 84.86 4.83611 86.865 3.08151C88.87 1.32701 91.958 0.449707 96.13 0.449707L118.125 27.144C118.125 30.689 117.167 33.2223 115.251 34.7441C113.389 36.2301 110.345 36.9731 106.12 36.9731L84.018 11.2456ZM83.938 18.4966L99.89 37H83.938V18.4966ZM154.729 18.4966C158.148 19.911 159.858 22.4443 159.858 26.0967C159.858 29.4447 158.685 32.0765 156.34 33.9922C153.887 35.9974 150.405 37 145.893 37H143.422V0.449707H145.49C149.895 0.449707 153.26 1.55081 155.588 3.75291C157.718 5.75811 158.784 8.36311 158.784 11.5679C158.784 14.7547 157.459 17.0643 154.809 18.4966H154.729ZM124.516 0.449707H138.964V36.9463H124.516V0.449707ZM185.478 0.449707H200.383V10.6011H197.59C192.738 10.6011 189.426 9.84021 187.653 8.31841C186.203 7.06511 185.478 5.04201 185.478 2.24901V0.449707ZM166.384 0.449707H180.832V15.1665H191.601V22.1758H180.832V36.9463H166.384V0.449707ZM185.451 34.395C185.451 30.689 187.6 28.1735 191.896 26.8486C193.544 26.3473 195.665 26.0967 198.261 26.0967H200.383V37H185.451V34.395ZM207.58 0.449707H222.028V36.9463H207.58V0.449707ZM226.647 34.395C226.647 30.689 228.796 28.1735 233.093 26.8486C234.74 26.3473 236.861 26.0967 239.458 26.0967H241.579V37H226.647V34.395Z" fill="#E8F6FF"/>
</svg>
