<svg width="355" height="100" viewBox="0 0 355 100" fill="none" xmlns="http://www.w3.org/2000/svg">
<path d="M130.525 32.4497H145.376V57.2642C145.376 61.2209 144.472 64.1302 142.664 65.9922C140.677 67.9974 137.436 69 132.942 69H130.525V32.4497ZM109.82 56.4585H126.067V69H124.322C119.183 69 115.486 68.1764 113.23 66.5293C110.957 64.9001 109.82 62.1877 109.82 58.3921V56.4585ZM171.265 32.4497H173.682C180.271 32.4497 184.201 34.6787 185.472 39.1367C185.901 40.6048 186.116 42.2878 186.116 44.1855V69H171.265V32.4497ZM151.446 44.1855C151.446 40.2288 152.35 37.3285 154.158 35.4844C156.146 33.4613 159.386 32.4497 163.88 32.4497H166.297V69H151.446V44.1855ZM210.555 32.4497H227.125V50.8457L210.555 32.4497ZM193.018 43.2456H192.857C192.857 39.5575 193.86 36.8361 195.865 35.0815C197.87 33.327 200.958 32.4497 205.13 32.4497L227.125 59.144C227.125 62.689 226.167 65.2223 224.251 66.7441C222.389 68.2301 219.345 68.9731 215.12 68.9731L193.018 43.2456ZM192.938 50.4966L208.89 69H192.938V50.4966ZM263.729 50.4966C267.148 51.911 268.858 54.4443 268.858 58.0967C268.858 61.4447 267.685 64.0765 265.34 65.9922C262.887 67.9974 259.405 69 254.893 69H252.422V32.4497H254.49C258.895 32.4497 262.26 33.5508 264.588 35.7529C266.718 37.7581 267.784 40.3631 267.784 43.5679C267.784 46.7547 266.459 49.0643 263.809 50.4966H263.729ZM233.516 32.4497H247.964V68.9463H233.516V32.4497ZM294.478 32.4497H309.383V42.6011H306.59C301.738 42.6011 298.426 41.8402 296.653 40.3184C295.203 39.0651 294.478 37.042 294.478 34.249V32.4497ZM275.384 32.4497H289.832V47.1665H300.601V54.1758H289.832V68.9463H275.384V32.4497ZM294.451 66.395C294.451 62.689 296.6 60.1735 300.896 58.8486C302.544 58.3473 304.665 58.0967 307.261 58.0967H309.383V69H294.451V66.395ZM316.58 32.4497H331.028V68.9463H316.58V32.4497ZM335.647 66.395C335.647 62.689 337.796 60.1735 342.093 58.8486C343.74 58.3473 345.861 58.0967 348.458 58.0967H350.579V69H335.647V66.395Z" fill="#E8F6FF"/>
</svg>
