<svg width="40" height="40" viewBox="0 0 40 40" fill="none" xmlns="http://www.w3.org/2000/svg">
<path d="M8.30501 11.995C10.319 11.995 11.9517 10.3623 11.9517 8.34833C11.9517 6.33433 10.319 4.70166 8.30501 4.70166C6.29101 4.70166 4.65834 6.33433 4.65834 8.34833C4.65834 10.3623 6.29101 11.995 8.30501 11.995Z" fill="white"/>
<path d="M15.395 14.7583V34.99H21.6767V24.985C21.6767 22.345 22.1733 19.7883 25.4467 19.7883C28.675 19.7883 28.715 22.8066 28.715 25.1516V34.9916H35V23.8966C35 18.4466 33.8267 14.2583 27.4567 14.2583C24.3983 14.2583 22.3483 15.9366 21.51 17.525H21.425V14.7583H15.395V14.7583ZM5.15834 14.7583H11.45V34.99H5.15834V14.7583Z" fill="white"/>
</svg>
