<svg width="40" height="40" viewBox="0 0 40 40" fill="none" xmlns="http://www.w3.org/2000/svg">
<path d="M32.6767 11.6584C32.55 11.1617 32.19 10.7867 31.7783 10.6717C31.05 10.4667 27.5 10.0001 20 10.0001C12.5 10.0001 8.95333 10.4667 8.21833 10.6717C7.81166 10.7851 7.45166 11.1601 7.32333 11.6584C7.14166 12.3651 6.66666 15.3267 6.66666 20.0001C6.66666 24.6734 7.14166 27.6334 7.32333 28.3434C7.44999 28.8384 7.81 29.2134 8.22 29.3267C8.95333 29.5334 12.5 30.0001 20 30.0001C27.5 30.0001 31.0483 29.5334 31.7817 29.3284C32.1883 29.2151 32.5483 28.8401 32.6767 28.3417C32.8583 27.6351 33.3333 24.6667 33.3333 20.0001C33.3333 15.3334 32.8583 12.3667 32.6767 11.6584ZM35.905 10.8301C36.6667 13.8001 36.6667 20.0001 36.6667 20.0001C36.6667 20.0001 36.6667 26.2001 35.905 29.1701C35.4817 30.8117 34.2433 32.1034 32.675 32.5401C29.8267 33.3334 20 33.3334 20 33.3334C20 33.3334 10.1783 33.3334 7.32499 32.5401C5.74999 32.0967 4.51333 30.8067 4.09499 29.1701C3.33333 26.2001 3.33333 20.0001 3.33333 20.0001C3.33333 20.0001 3.33333 13.8001 4.09499 10.8301C4.51833 9.18841 5.75666 7.89675 7.32499 7.46008C10.1783 6.66675 20 6.66675 20 6.66675C20 6.66675 29.8267 6.66675 32.675 7.46008C34.25 7.90341 35.4867 9.19341 35.905 10.8301V10.8301ZM16.6667 25.8334V14.1667L26.6667 20.0001L16.6667 25.8334Z" fill="white"/>
</svg>
